<?xml version="1.0" encoding="utf-8"?>
<!-- Generator: Adobe Illustrator 25.4.1, SVG Export Plug-In . SVG Version: 6.00 Build 0)  -->
<svg version="1.1" id="Camada_1" xmlns="http://www.w3.org/2000/svg" xmlns:xlink="http://www.w3.org/1999/xlink" x="0px" y="0px"
	 viewBox="0 0 63.4 56.55" style="enable-background:new 0 0 63.4 56.55;" xml:space="preserve">
<style type="text/css">
	.st0{opacity:0.15;fill:#FFFFFF;}
	.st1{fill:#FFFFFF;}
	.st2{fill:#092654;}
	.st3{fill:#00A5FE;}
	.st4{fill-rule:evenodd;clip-rule:evenodd;fill:#092654;}
	.st5{fill-rule:evenodd;clip-rule:evenodd;fill:#00A5FE;}
</style>
<path id="Retângulo_40_00000152975490773029345330000014706689791824933048_" class="st1" d="M15.61,0.11h32.18
	c6.66,0,12.07,5.4,12.07,12.07v32.18c0,6.66-5.4,12.07-12.07,12.07H15.61c-6.66,0-12.07-5.4-12.07-12.07V12.18
	C3.54,5.52,8.95,0.11,15.61,0.11z"/>
<g id="Grupo_202_00000002347642829289555370000018392142649476823203_" transform="translate(4.886 5.863)">
	<path id="Caminho_379_00000147210074176248812490000006458256189352889243_" class="st2" d="M45.75,22.59L27.68,4.51
		c-0.71-0.71-1.86-0.71-2.57,0c-0.01,0.01-0.01,0.01-0.02,0.02L7.12,22.61c-0.48,0.48-0.48,1.26,0,1.74
		c0.23,0.23,0.54,0.36,0.87,0.36h5.15v12.48c0,1.56,1.26,2.82,2.82,2.82h3.78c1.18,0,2.14-0.96,2.14-2.14c0,0,0,0,0,0v-8.24
		c0-1.25,1.01-2.27,2.26-2.27c0,0,0,0,0.01,0h4.55c1.25,0,2.27,1.01,2.27,2.26c0,0,0,0,0,0.01v8.24c0,1.18,0.96,2.14,2.14,2.14
		c0,0,0,0,0,0h3.45c1.55,0.01,2.81-1.25,2.82-2.8c0-0.01,0-0.01,0-0.02V24.71h5.5c0.68,0,1.23-0.56,1.23-1.24
		C46.12,23.14,45.99,22.82,45.75,22.59z"/>
</g>
</svg>
