<?xml version="1.0" encoding="utf-8"?>
<!-- Generator: Adobe Illustrator 25.4.1, SVG Export Plug-In . SVG Version: 6.00 Build 0)  -->
<svg version="1.1" id="Camada_1" xmlns="http://www.w3.org/2000/svg" xmlns:xlink="http://www.w3.org/1999/xlink" x="0px" y="0px"
	 viewBox="0 0 63.4 56.55" style="enable-background:new 0 0 63.4 56.55;" xml:space="preserve">
<style type="text/css">
	.st0{opacity:0.15;fill:#FFFFFF;}
	.st1{fill:#FFFFFF;}
	.st2{fill:#092654;}
	.st3{fill:#00A5FE;}
	.st4{fill-rule:evenodd;clip-rule:evenodd;fill:#092654;}
	.st5{fill-rule:evenodd;clip-rule:evenodd;fill:#00A5FE;}
</style>
<path id="Retângulo_39_00000134210094596458211570000008518549088383072684_" class="st1" d="M15.61,0.11h32.18
	c6.67,0,12.07,5.4,12.07,12.07v32.18c0,6.67-5.4,12.07-12.07,12.07H15.61c-6.67,0-12.07-5.4-12.07-12.07V12.18
	C3.54,5.52,8.95,0.11,15.61,0.11z"/>
<g id="Grupo_205_00000073717963442358552010000015721669777813970100_" transform="translate(13.68 6.84)">
	<path id="Caminho_384_00000153678892300796633870000014390407795142191238_" class="st4" d="M15.21,17.94h4.88
		c1.12-0.04,2.06,0.82,2.11,1.94v17.55c-0.09,1.1-1.01,1.95-2.11,1.94h-4.88c-1.1,0.01-2.03-0.84-2.11-1.94V19.88
		C13.15,18.76,14.09,17.89,15.21,17.94L15.21,17.94z M17.65,4.62c2.81-0.01,5.1,2.27,5.11,5.08c0,0.01,0,0.02,0,0.02
		c0.05,2.78-2.17,5.06-4.94,5.11c-0.05,0-0.11,0-0.16,0c-2.81,0.01-5.1-2.27-5.11-5.08c0-0.01,0-0.02,0-0.03
		C12.58,6.92,14.85,4.65,17.65,4.62z"/>
</g>
</svg>
