<?xml version="1.0" encoding="utf-8"?>
<!-- Generator: Adobe Illustrator 25.4.1, SVG Export Plug-In . SVG Version: 6.00 Build 0)  -->
<svg version="1.1" id="Camada_1" xmlns="http://www.w3.org/2000/svg" xmlns:xlink="http://www.w3.org/1999/xlink" x="0px" y="0px"
	 viewBox="0 0 63.4 56.55" style="enable-background:new 0 0 63.4 56.55;" xml:space="preserve">
<style type="text/css">
	.st0{opacity:0.15;fill:#FFFFFF;}
	.st1{fill:#FFFFFF;}
	.st2{fill:#092654;}
	.st3{fill:#00A5FE;}
	.st4{fill-rule:evenodd;clip-rule:evenodd;fill:#092654;}
	.st5{fill-rule:evenodd;clip-rule:evenodd;fill:#00A5FE;}
</style>
<g>
	<g>
		<path class="st2" d="M49.61,48.19H13.79c-2.34,0-4.43-1.21-5.6-3.23c-1.17-2.03-1.17-4.44,0-6.47L26.1,7.46
			c1.17-2.02,3.26-3.23,5.6-3.23c2.34,0,4.43,1.21,5.6,3.23l17.91,31.03c1.17,2.03,1.17,4.44,0,6.47
			C54.05,46.98,51.95,48.19,49.61,48.19z M29.56,9.46L11.65,40.49c-0.64,1.11-0.21,2.1,0,2.47s0.85,1.23,2.14,1.23h35.83
			c1.29,0,1.92-0.86,2.14-1.23c0.21-0.37,0.64-1.35,0-2.47L33.84,9.46c-0.64-1.11-1.71-1.23-2.14-1.23
			C31.27,8.22,30.21,8.35,29.56,9.46z"/>
	</g>
	<g id="Grupo_205_00000040559344589587785640000007825013025398370494_" transform="translate(13.68 6.84)">
		<g id="Caminho_384_00000181046461354148201590000009572759550566549932_">
			<path class="st4" d="M19.62,25.1h-3.2c-0.73,0.03-1.35-0.54-1.38-1.27V12.31c0.06-0.72,0.66-1.28,1.38-1.28h3.2
				c0.72,0,1.33,0.55,1.39,1.28v11.52C20.97,24.56,20.35,25.12,19.62,25.1L19.62,25.1z M18.02,33.84c-1.85,0-3.35-1.49-3.35-3.33
				c0-0.01,0-0.01,0-0.02c-0.03-1.82,1.42-3.32,3.24-3.35c0.04,0,0.07,0,0.11,0c1.85,0,3.35,1.49,3.35,3.33c0,0.01,0,0.01,0,0.02
				C21.35,32.33,19.86,33.81,18.02,33.84z"/>
		</g>
	</g>
</g>
</svg>
