<?xml version="1.0" encoding="utf-8"?>
<!-- Generator: Adobe Illustrator 25.4.1, SVG Export Plug-In . SVG Version: 6.00 Build 0)  -->
<svg version="1.1" id="Camada_1" xmlns="http://www.w3.org/2000/svg" xmlns:xlink="http://www.w3.org/1999/xlink" x="0px" y="0px"
	 viewBox="0 0 63.4 56.55" style="enable-background:new 0 0 63.4 56.55;" xml:space="preserve">
<style type="text/css">
	.st0{opacity:0.15;fill:#FFFFFF;}
	.st1{fill:#FFFFFF;}
	.st2{fill:#092654;}
	.st3{fill:#00A5FE;}
	.st4{fill-rule:evenodd;clip-rule:evenodd;fill:#092654;}
	.st5{fill-rule:evenodd;clip-rule:evenodd;fill:#00A5FE;}
</style>
<g>
	<path id="Retângulo_38_00000160884790977176924430000015320210880206565279_" class="st1" d="M15.61,0.11h32.18
		c6.67,0,12.07,5.4,12.07,12.07v32.18c0,6.67-5.4,12.07-12.07,12.07H15.61c-6.67,0-12.07-5.4-12.07-12.07V12.18
		C3.54,5.52,8.95,0.11,15.61,0.11z"/>
	<g id="Grupo_201_00000183966505644105004020000006889829816938777527_" transform="translate(6.84 5.863)">
		<path id="Caminho_378_00000178886851730278951960000009298599836876091289_" class="st2" d="M33.24,12.16
			c0,4.52-3.66,8.18-8.18,8.18s-8.18-3.66-8.18-8.18c0-4.52,3.66-8.18,8.18-8.18c0,0,0,0,0,0C29.57,3.98,33.24,7.64,33.24,12.16z
			 M25.05,22.77c-8.43,0-15.61,6.11-16.98,14.43c-0.2,1.33,0.73,2.57,2.06,2.77c0.12,0.02,0.25,0.03,0.37,0.03H39.6
			c1.35,0.01,2.45-1.08,2.46-2.42c0-0.12-0.01-0.25-0.03-0.37C40.67,28.88,33.48,22.78,25.05,22.77L25.05,22.77z"/>
	</g>
</g>
</svg>
