<?xml version="1.0" encoding="utf-8"?>
<!-- Generator: Adobe Illustrator 25.4.1, SVG Export Plug-In . SVG Version: 6.00 Build 0)  -->
<svg version="1.1" id="Camada_1" xmlns="http://www.w3.org/2000/svg" xmlns:xlink="http://www.w3.org/1999/xlink" x="0px" y="0px"
	 viewBox="0 0 63.4 56.55" style="enable-background:new 0 0 63.4 56.55;" xml:space="preserve">
<style type="text/css">
	.st0{opacity:0.15;fill:#FFFFFF;}
	.st1{fill:#FFFFFF;}
	.st2{fill:#092654;}
	.st3{fill:#00A5FE;}
	.st4{fill-rule:evenodd;clip-rule:evenodd;fill:#092654;}
	.st5{fill-rule:evenodd;clip-rule:evenodd;fill:#00A5FE;}
</style>
<g>
	<path id="Retângulo_9_00000138566743582614843210000010407462352435593387_" class="st1" d="M15.61,0.11h32.18
		c6.67,0,12.07,5.4,12.07,12.07v32.18c0,6.67-5.4,12.07-12.07,12.07H15.61c-6.67,0-12.07-5.4-12.07-12.07V12.18
		C3.54,5.52,8.95,0.11,15.61,0.11z"/>
	<g id="Grupo_204_00000183968890855431881560000007376024208834408608_" transform="translate(9.771 5.863)">
		<path id="Caminho_382_00000071547531076008169840000004412768597945670046_" class="st2" d="M17.77,27.15h7.45v-2.74
			c4.77-0.92,8.31-4.97,8.56-9.83c0-5.93-4.76-10.18-11.65-10.18c-4.59,0-8.96,1.93-12.06,5.32l4.81,4.96
			c1.5-1.54,3.53-2.45,5.67-2.53c2.63,0,4.46,1.42,4.46,3.24c0,2.13-2.98,3.7-7.24,3.8L17.77,27.15z"/>
		<path id="Caminho_383_00000113320880759437306260000016970877428893793179_" class="st2" d="M21.53,40.42
			c2.88-0.08,5.15-2.49,5.07-5.37c-0.08-2.88-2.49-5.15-5.37-5.07c-2.78,0.08-5.01,2.33-5.07,5.12c-0.04,2.9,2.27,5.28,5.17,5.32
			C21.39,40.42,21.46,40.42,21.53,40.42z"/>
	</g>
</g>
</svg>
